<?xml version="1.0" standalone="no"?>
<!DOCTYPE svg PUBLIC "-//W3C//DTD SVG 20010904//EN"
 "http://www.w3.org/TR/2001/REC-SVG-20010904/DTD/svg10.dtd">
<svg version="1.0" xmlns="http://www.w3.org/2000/svg"
 width="867.000000pt" height="867.000000pt" viewBox="0 0 867.000000 867.000000"
 preserveAspectRatio="xMidYMid meet">
<g transform="translate(0.000000,867.000000) scale(0.100000,-0.100000)"
fill="#000000" stroke="none">
<path d="M5785 8158 c-3 -7 -432 -1304 -954 -2882 -522 -1577 -951 -2870 -954
-2872 -2 -2 -225 665 -496 1481 l-492 1485 -645 0 c-354 0 -644 -3 -644 -7 0
-5 361 -1098 802 -2430 l803 -2423 673 0 c369 0 672 2 672 5 0 3 569 1724
1265 3824 696 2101 1265 3822 1265 3825 0 3 -290 6 -645 6 -508 0 -647 -3
-650 -12z m941 -255 c-3 -10 -510 -1541 -1126 -3403 -617 -1862 -1147 -3464
-1179 -3560 l-58 -175 -376 -3 c-207 -1 -377 0 -377 4 0 6 266 812 1501 4544
467 1411 853 2575 859 2588 l10 22 375 0 c354 0 376 -1 371 -17z m-4022 -2794
c2 -2 236 -705 520 -1562 l517 -1558 -188 -564 c-103 -311 -190 -561 -194
-557 -5 6 -1409 4233 -1409 4243 0 6 749 4 754 -2z"/>
</g>
</svg>
